<?xml version="1.0" encoding="UTF-8"?>
<svg id="Layer_1" xmlns="http://www.w3.org/2000/svg" version="1.1" xmlns:xlink="http://www.w3.org/1999/xlink" viewBox="0 0 4466.9 1676.4">
  <!-- Generator: Adobe Illustrator 29.5.1, SVG Export Plug-In . SVG Version: 2.1.0 Build 141)  -->
  <defs>
    <style>
      .st0 {
        fill-rule: evenodd;
      }

      .st0, .st1 {
        fill: #274939;
      }

      .st2 {
        fill: #fff;
      }

      .st3, .st4 {
        fill: none;
      }

      .st5 {
        fill: #638b79;
      }

      .st6 {
        fill: #513c60;
      }

      .st7 {
        clip-path: url(#clippath);
      }

      .st4 {
        stroke: #274939;
        stroke-miterlimit: 10;
        stroke-width: 80px;
      }
    </style>
    <clipPath id="clippath">
      <rect class="st3" x="-239" y="-655.7" width="5000" height="3000"/>
    </clipPath>
  </defs>
  <path class="st1" d="M1538.2,994.1h-534.9V246.8h518.9v146.3h-369.4v129.2h214.6v145.2h-214.6v180.4h385.4v146.3Z"/>
  <g>
    <path class="st1" d="M2302.6,994.1h-178.3l-67.3-113.2c-26.7-44.8-67.3-118.5-81.1-146.3-12.8,27.8-53.4,99.3-81.1,146.3l-67.3,113.2h-178.3l237-382.2-226.3-365.1h178.3l56.6,96.1c26.7,44.8,67.3,118.5,81.1,146.3,13.9-27.8,53.4-99.3,81.1-146.3l56.6-96.1h178.3l-227.4,365.1,238.1,382.2Z"/>
    <path class="st1" d="M2966.7,394.1h-214.6v600h-149.5V394.1h-214.6v-147.3h578.6v147.3Z"/>
    <path class="st1" d="M3692.6,619.4c0,241.3-135.6,386.5-329.9,386.5s-328.8-143.1-328.8-384.3,135.6-386.5,331-386.5,327.8,143.1,327.8,384.3ZM3538.9,621.5c0-151.6-72.6-238.1-177.2-238.1s-174,84.3-174,235.9,72.6,238.1,177.2,238.1,174-84.3,174-235.9Z"/>
    <path class="st1" d="M4448.5,994.1h-133.5l-274.4-407.8c-18.1-27.8-42.7-65.1-52.3-84.3,0,27.8,2.1,121.7,2.1,163.3v328.8h-147.3V246.8h143.1l264.8,395c18.1,27.8,42.7,65.1,52.3,84.3,0-27.8-2.1-121.7-2.1-163.3V246.8h147.3v747.3Z"/>
  </g>
  <g>
    <path class="st6" d="M359.3,1520.6h-93.3l-72.5-146.1h-81.7v146.1H30.6v-405.8h189c76.5,0,139.7,42.3,139.7,128.7s-26.1,99.1-77.7,119.4l77.7,157.7ZM275.9,1245.2c0-36.5-22-51.6-58-51.6h-106.1v104.3h106.1c37.7,0,58-17.4,58-52.8Z"/>
    <path class="st6" d="M676.4,1368.7c0,93.3-58.6,158.3-138,158.3s-137.4-64.9-137.4-158.3,58-158.8,137.4-158.8,138,65.5,138,158.8ZM595.3,1368.7c0-46.4-18.6-81.7-56.8-81.7s-56.2,34.8-56.2,81.7,18,81.2,56.2,81.2,56.8-38.8,56.8-81.2Z"/>
    <path class="st6" d="M998.2,1368.7c0,93.3-58.6,158.3-138,158.3s-137.4-64.9-137.4-158.3,58-158.8,137.4-158.8,138,65.5,138,158.8ZM917,1368.7c0-46.4-18.6-81.7-56.8-81.7s-56.2,34.8-56.2,81.7,18,81.2,56.2,81.2,56.8-38.8,56.8-81.2Z"/>
    <path class="st6" d="M1209.2,1172.8c-8.1-4.1-16.2-6.4-27.8-6.4-23.8,0-29.6,7.5-29.6,24.3v25.5h51.6v75.4h-51.6v229h-80v-229h-36.5v-75.4h36.5v-36.5c0-56.8,31.3-80,87-80s36.5,2.9,50.4,8.7v64.3Z"/>
    <path class="st6" d="M1352.4,1145.5c0,24.9-20.9,45.8-45.8,45.8s-45.8-20.9-45.8-45.8,20.9-45.8,45.8-45.8,45.8,20.9,45.8,45.8ZM1346.6,1520.6h-80v-304.3h80v304.3Z"/>
    <path class="st6" d="M1690.9,1520.6h-80v-164.6c0-54.5-18.6-70.7-51.6-70.7s-52.2,16.2-52.2,69v166.4h-80v-304.3h80v20.3c13.9-14.5,39.4-26.7,71.3-26.7,77.7,0,112.5,53.3,112.5,139.1v171.6Z"/>
    <path class="st6" d="M2012.7,1469c0,100.3-24.3,151.9-131,163.5l-28.4-60.3c62.6-8.7,79.4-23.8,79.4-70.7-15.1,13.3-35.4,25.5-64.3,25.5-64.9,0-118.3-48.7-118.3-162.3s42.9-154.8,118.3-154.8,49.9,10.4,64.3,23.8v-17.4h80v252.8ZM1932.7,1426.1v-114.8c-12.2-16.8-30.7-26.1-53.9-26.1s-47.5,26.7-47.5,77.7,20.9,88.7,52.2,88.7,37.7-10.4,49.3-25.5Z"/>
    <path class="st6" d="M2619.6,1520.6h-92.8l-30.7-33c-31.9,26.1-70.7,39.4-118.3,39.4-82.9,0-133.3-34.8-133.3-107.8s31.3-91,82.9-116.5l-10.4-11.6c-21.4-23.8-35.4-49.9-35.4-82.3,0-66.1,52.2-100.3,120.6-100.3s82.3,15.1,121.2,42.3l-38.8,58.6c-26.7-20.3-55.7-29-84.6-29s-38.3,9.9-38.3,26.7,8.7,29,21.4,44.1l111.9,127.5c9.3-18.6,18.6-40.6,28.4-67.2l65.5,20.9c-12.8,39.4-27.8,73.6-45.8,101.4l76.5,87ZM2449.8,1437.1l-79.4-87c-31.9,16.8-44.6,37.7-44.6,62s20.9,42.9,61.4,42.9,45.8-5.8,62.6-18Z"/>
    <path class="st6" d="M3144.3,1397.7c0,77.1-48.7,129.3-159.4,129.3s-127-28.4-157.7-73.6l58.6-52.2c28.4,33,64.9,46.4,103.8,46.4s70.7-13.3,70.7-44.1-13.9-37.7-90.4-55.1c-74.8-17.4-127-41.2-127-121.2s64.9-118.8,144.9-118.8,109.6,23.8,147.8,63.8l-58.6,56.8c-26.1-26.7-55.1-41.7-92.2-41.7s-58,18.6-58,36.5c0,25.5,17.4,33.6,81.7,48.7,64.3,15.1,135.7,37.1,135.7,125.2Z"/>
    <path class="st6" d="M3305.4,1145.5c0,24.9-20.9,45.8-45.8,45.8s-45.8-20.9-45.8-45.8,20.9-45.8,45.8-45.8,45.8,20.9,45.8,45.8ZM3299.6,1520.6h-80v-304.3h80v304.3Z"/>
    <path class="st6" d="M3627.2,1520.6h-80v-19.1c-15.1,13.3-35.4,25.5-64.3,25.5-64.9,0-118.3-48.7-118.3-162.3s42.9-154.8,118.3-154.8,49.9,10.4,64.3,23.8v-95.7l80-40v422.6ZM3547.2,1426.1v-114.8c-12.2-16.8-30.7-26.1-53.9-26.1s-47.5,26.7-47.5,77.7,20.9,88.7,52.2,88.7,37.7-10.4,49.3-25.5Z"/>
    <path class="st6" d="M3794.7,1145.5c0,24.9-20.9,45.8-45.8,45.8s-45.8-20.9-45.8-45.8,20.9-45.8,45.8-45.8,45.8,20.9,45.8,45.8ZM3788.9,1520.6h-80v-304.3h80v304.3Z"/>
    <path class="st6" d="M4133.2,1520.6h-80v-164.6c0-54.5-18.6-70.7-51.6-70.7s-52.2,16.2-52.2,69v166.4h-80v-304.3h80v20.3c13.9-14.5,39.4-26.7,71.3-26.7,77.7,0,112.5,53.3,112.5,139.1v171.6Z"/>
    <path class="st6" d="M4455,1469c0,100.3-24.3,151.9-131,163.5l-28.4-60.3c62.6-8.7,79.4-23.8,79.4-70.7-15.1,13.3-35.4,25.5-64.3,25.5-64.9,0-118.3-48.7-118.3-162.3s42.9-154.8,118.3-154.8,49.9,10.4,64.3,23.8v-17.4h80v252.8ZM4375,1426.1v-114.8c-12.2-16.8-30.7-26.1-53.9-26.1s-47.5,26.7-47.5,77.7,20.9,88.7,52.2,88.7,37.7-10.4,49.3-25.5Z"/>
  </g>
  <g class="st7">
    <path class="st0" d="M452.4,719.2v-32.4c0-14.9-7.9-28.8-21-36.9l-285-176.9c-13.1-8.1-21-22-21-36.9v-52.2c0-14.9,7.9-28.8,21-36.9l281-174.4c15.2-9.5,34.8-9.5,50.1,0l280.9,174.4c13.1,8.1,21,22,21,36.9s7.9,28.8,21,36.9l18.6,11.5c30.6,19,71-2,71-36.9v-80.1c0-14.9-7.9-28.8-21-36.9l-197.8-122.8-193.7-120.2c-15.2-9.5-34.8-9.5-50.1,0l-193.7,120.2-197.8,122.8c-13.1,8.1-21,22-21,36.9v189.4c0,14.9,7.9,28.8,21,36.9l104.9,65.1h0s240.6,149.3,240.6,149.3c30.6,19,71-2,71-36.9M60.9,990.1h783c25.4,0,46-19.7,46-44v-308.6c0-14.9-7.9-28.8-21-36.9l-89.6-55.6-255.9-158.8c-30.6-19-71,2-71,36.9v32.4c0,14.9,7.9,28.8,21,36.9l285,176.9c13.1,8.1,21,22,21,36.9v121.1c0,24.3-20.6,44-46,44H171.5c-25.4,0-46-19.7-46-44v-68.9c0-14.9-7.9-28.8-21-36.9l-18.6-11.5c-30.6-19-71,2-71,36.9v199.3c0,24.3,20.6,44,46,44"/>
    <line class="st2" x1="156.1" y1="84.5" x2="157.5" y2="290.9"/>
    <line class="st4" x1="156.1" y1="84.5" x2="157.5" y2="290.9"/>
    <rect class="st5" x="310.9" y="331.5" width="64.7" height="64.3"/>
    <rect class="st5" x="232.4" y="331.5" width="64.7" height="64.3"/>
    <rect class="st5" x="310.9" y="410.4" width="64.7" height="64.3"/>
    <rect class="st5" x="232.4" y="410.4" width="64.7" height="64.3"/>
  </g>
</svg>